<svg xmlns="http://www.w3.org/2000/svg" xmlns:xlink="http://www.w3.org/1999/xlink" version="1.1" x="0px" y="0px" width="100px" height="100px" viewBox="0 0 100 100" enable-background="new 0 0 100 100" xml:space="preserve">
<g id="Captions">
</g>
<g id="Your_Icon">
	<path d="M50,97.682C23.708,97.682,2.318,76.292,2.318,50C2.318,23.708,23.708,2.318,50,2.318c26.292,0,47.682,21.39,47.682,47.682   C97.682,76.292,76.292,97.682,50,97.682z M50,9.518C27.678,9.518,9.518,27.678,9.518,50c0,22.321,18.16,40.481,40.482,40.481   c22.322,0,40.481-18.16,40.481-40.481C90.481,27.678,72.322,9.518,50,9.518z M82.061,34.273c-1.522,4.1-5.469,7.021-10.098,7.021   c-5.947,0-10.768-4.821-10.768-10.768c0-4.629,2.922-8.575,7.021-10.097c-2.213-0.746-4.582-1.151-7.047-1.151   c-12.173,0-22.041,9.868-22.041,22.041c0,12.173,9.868,22.041,22.041,22.041s22.041-9.867,22.041-22.041   C83.211,38.855,82.807,36.486,82.061,34.273z"/>
</g>
</svg>